<svg width="16" height="16" viewBox="0 0 16 16" fill="none" xmlns="http://www.w3.org/2000/svg">
<path d="M14.4 0H1.6C0.307764 0 0 0.107764 0 1.4V14.4C0 15.6922 0.307764 16 1.6 16H14.4C15.6922 16 16 15.6922 16 14.4V1.4C16 0.107764 15.6922 0 14.4 0ZM8.03125 12.1875C5.70496 12.1875 3.8125 10.295 3.8125 7.96875C3.8125 5.64246 5.70496 3.75 8.03125 3.75C10.3575 3.75 12.25 5.64246 12.25 7.96875C12.25 10.295 10.3575 12.1875 8.03125 12.1875ZM12.7188 4.6875C11.9434 4.6875 11.3125 4.05664 11.3125 3.28125C11.3125 2.50586 11.9434 1.875 12.7188 1.875C13.4941 1.875 14.125 2.50586 14.125 3.28125C14.125 4.05664 13.4941 4.6875 12.7188 4.6875Z" fill="#818181"/>
<path d="M12.7188 2.8125C12.4601 2.8125 12.25 3.02258 12.25 3.28125C12.25 3.53992 12.4601 3.75 12.7188 3.75C12.9774 3.75 13.1875 3.53992 13.1875 3.28125C13.1875 3.02258 12.9774 2.8125 12.7188 2.8125Z" fill="#818181"/>
<path d="M8.03125 4.6875C6.22217 4.6875 4.75 6.15967 4.75 7.96875C4.75 9.77783 6.22217 11.25 8.03125 11.25C9.84033 11.25 11.3125 9.77783 11.3125 7.96875C11.3125 6.15967 9.84033 4.6875 8.03125 4.6875Z" fill="#818181"/>
</svg>
