<svg width="20" height="12" viewBox="0 0 20 12" fill="none" xmlns="http://www.w3.org/2000/svg">
<path d="M19.894 10.6002C19.8698 10.548 19.8472 10.5047 19.8262 10.47C19.4792 9.84509 18.8161 9.078 17.8373 8.16856L17.8166 8.14773L17.8063 8.13752L17.7958 8.12705H17.7853C17.341 7.70357 17.0597 7.41883 16.9419 7.27305C16.7264 6.99535 16.6781 6.71425 16.7959 6.42944C16.8791 6.21425 17.1918 5.7598 17.7331 5.06548C18.0178 4.69751 18.2433 4.40259 18.4099 4.1804C19.611 2.58363 20.1317 1.56328 19.9719 1.11893L19.9099 1.01509C19.8682 0.952581 19.7606 0.895392 19.5872 0.843236C19.4135 0.79119 19.1914 0.782582 18.9206 0.817268L15.9217 0.837984C15.8731 0.820769 15.8037 0.822374 15.7134 0.843236C15.6231 0.864098 15.5779 0.874566 15.5779 0.874566L15.5257 0.900644L15.4843 0.931974C15.4496 0.95269 15.4114 0.989126 15.3697 1.04121C15.3282 1.09311 15.2936 1.15402 15.2658 1.22343C14.9393 2.06342 14.5681 2.84441 14.1515 3.56635C13.8946 3.99683 13.6587 4.36991 13.4433 4.6858C13.2281 5.00158 13.0476 5.23424 12.9019 5.38337C12.756 5.53265 12.6244 5.65225 12.5061 5.74259C12.3881 5.83297 12.298 5.87116 12.2355 5.85719C12.173 5.84322 12.1141 5.82936 12.0583 5.8155C11.9612 5.75298 11.8831 5.66797 11.8242 5.56037C11.765 5.45278 11.7252 5.31736 11.7044 5.15421C11.6836 4.99096 11.6714 4.85055 11.6679 4.73248C11.6646 4.61457 11.6661 4.44778 11.6732 4.23259C11.6804 4.01729 11.6836 3.87162 11.6836 3.79525C11.6836 3.53141 11.6888 3.24506 11.6991 2.93614C11.7096 2.62722 11.7181 2.38245 11.7252 2.20213C11.7323 2.02163 11.7356 1.83066 11.7356 1.62933C11.7356 1.428 11.7233 1.27011 11.6991 1.15551C11.6752 1.04106 11.6385 0.929968 11.5901 0.822264C11.5414 0.71467 11.4701 0.63144 11.3766 0.572355C11.2829 0.513342 11.1664 0.466511 11.0278 0.431717C10.6598 0.34845 10.1912 0.303406 9.62185 0.296404C8.33069 0.282544 7.50105 0.36592 7.13311 0.546423C6.98733 0.622687 6.85541 0.726888 6.73746 0.8587C6.61247 1.01148 6.59504 1.09486 6.68527 1.10857C7.10186 1.17098 7.39677 1.32026 7.57035 1.55627L7.6329 1.68134C7.68155 1.77157 7.73013 1.93132 7.77875 2.16037C7.8273 2.38942 7.85863 2.64279 7.87241 2.92035C7.90706 3.4272 7.90706 3.86108 7.87241 4.22201C7.83765 4.58309 7.80483 4.86419 7.7735 5.06551C7.74217 5.26684 7.69534 5.42998 7.6329 5.5549C7.57035 5.67986 7.52873 5.75623 7.50787 5.78395C7.48704 5.81167 7.46968 5.82914 7.4559 5.836C7.36566 5.87057 7.27182 5.88819 7.17469 5.88819C7.07742 5.88819 6.95947 5.83953 6.82065 5.7423C6.68188 5.64506 6.53785 5.5115 6.38856 5.34139C6.23928 5.17125 6.07093 4.93348 5.88342 4.62806C5.69606 4.32264 5.50166 3.96167 5.30033 3.54516L5.13376 3.24309C5.02963 3.04877 4.88739 2.76581 4.70689 2.39448C4.52628 2.02301 4.36664 1.66369 4.22786 1.31658C4.17238 1.1708 4.08904 1.05981 3.97799 0.983437L3.92587 0.952106C3.89122 0.924387 3.8356 0.894954 3.7593 0.863587C3.68289 0.832258 3.60316 0.80979 3.51978 0.795967L0.666572 0.816684C0.375011 0.816684 0.177184 0.882736 0.073018 1.01466L0.0313299 1.07706C0.0105041 1.11182 0 1.16733 0 1.24374C0 1.32011 0.0208258 1.41385 0.0625139 1.52483C0.47903 2.50376 0.931983 3.44785 1.42137 4.35725C1.91076 5.26666 2.33603 5.99921 2.69692 6.55425C3.05789 7.10969 3.42583 7.63391 3.80073 8.12665C4.17563 8.61958 4.42379 8.93547 4.54521 9.07425C4.66677 9.21328 4.76225 9.31722 4.83166 9.38663L5.09204 9.63651C5.25865 9.80315 5.5033 10.0027 5.82612 10.2352C6.14901 10.4679 6.50648 10.6969 6.89871 10.9227C7.291 11.1482 7.74739 11.3321 8.2681 11.4744C8.78875 11.6169 9.2955 11.674 9.78842 11.6464H10.986C11.2288 11.6255 11.4128 11.5491 11.5379 11.4173L11.5793 11.3651C11.6072 11.3237 11.6333 11.2593 11.6573 11.1727C11.6817 11.0859 11.6938 10.9903 11.6938 10.8863C11.6867 10.5879 11.7094 10.3189 11.7614 10.0794C11.8133 9.83999 11.8724 9.65948 11.9386 9.53792C12.0047 9.41647 12.0793 9.31398 12.1624 9.23089C12.2456 9.14763 12.3049 9.09719 12.3397 9.07983C12.3743 9.06236 12.4019 9.0505 12.4227 9.04339C12.5893 8.98788 12.7854 9.04164 13.0112 9.20493C13.2369 9.36807 13.4486 9.5695 13.6465 9.80891C13.8444 10.0485 14.0821 10.3174 14.3597 10.6158C14.6376 10.9144 14.8805 11.1363 15.0886 11.2823L15.2968 11.4073C15.4359 11.4907 15.6164 11.567 15.8386 11.6364C16.0604 11.7058 16.2547 11.7232 16.4215 11.6885L19.0872 11.6469C19.3509 11.6469 19.556 11.6033 19.7015 11.5166C19.8474 11.4299 19.934 11.3343 19.9619 11.2303C19.9898 11.1262 19.9913 11.0081 19.9672 10.8761C19.9425 10.7444 19.9182 10.6523 19.894 10.6002Z" fill="#818181"/>
</svg>
